<svg version="1.1" xmlns="http://www.w3.org/2000/svg" viewBox="0 0 133.80216491176907 108.47525268419554" width="133.80216491176907" height="108.47525268419554">
  <!-- svg-source:excalidraw -->

  <defs>
    <style class="style-fonts">
      @font-face {
        font-family: "Virgil";
        src: url("https://excalidraw.com/Virgil.woff2");
      }
      @font-face {
        font-family: "Cascadia";
        src: url("https://excalidraw.com/Cascadia.woff2");
      }
    </style>
  </defs>
  <rect x="0" y="0" width="133.80216491176907" height="108.47525268419554" fill="#ffffff"></rect><g stroke-linecap="round" transform="translate(10 19.363318204949906) rotate(0 56.901082455884534 4.783719321512422)"><path d="M1.55 1.71 L111.22 -0.2 L113.92 2.27 L112.98 8.09 L112.97 8.27 L4.1 9.04 L0.29 8.71 L0.59 3.31 L3.29 0.96" stroke="none" stroke-width="0" fill="#fab005"></path><path d="M2.39 0 M2.39 0 C27.52 1.41, 53.58 1.4, 111.41 0 M2.39 0 C45.1 -1.58, 86.05 -0.32, 111.41 0 M111.41 0 C112.93 1.18, 115.26 -1.06, 113.8 2.39 M111.41 0 C113.71 1.67, 115.31 -1.18, 113.8 2.39 M113.8 2.39 C113.97 3.13, 114.13 4.6, 113.8 7.18 M113.8 2.39 C113.69 4.04, 113.8 5.87, 113.8 7.18 M113.8 7.18 C112.15 9.35, 112.62 8.77, 111.41 9.57 M113.8 7.18 C112.81 6.84, 112.78 11.35, 111.41 9.57 M111.41 9.57 C77.82 6.91, 44.64 7.01, 2.39 9.57 M111.41 9.57 C89.81 10.79, 68.19 10.85, 2.39 9.57 M2.39 9.57 C0.3 9.64, 0.72 10.42, 0 7.18 M2.39 9.57 C1.52 11.72, -1.71 10.37, 0 7.18 M0 7.18 C-0.11 5.16, -0.29 4.07, 0 2.39 M0 7.18 C0.07 5.52, 0.12 3.39, 0 2.39 M0 2.39 C-0.76 0.85, -0.83 0.06, 2.39 0 M0 2.39 C-0.44 0.45, 0.78 1.5, 2.39 0" stroke="#000000" stroke-width="1" fill="none"></path></g><g stroke-linecap="round" transform="translate(92.58210197137225 24.147037526462327) rotate(340.07866787951457 4.531944620380216 37.51443046870267)"><path d="M1.51 1.43 L7.12 0.06 L8.96 0.97 L8.68 71.09 L7.59 75.92 L-1.35 76.21 L1.08 74.71 L-0.04 2.93 L1.36 -0.42" stroke="none" stroke-width="0" fill="#fab005"></path><path d="M2.27 0 M2.27 0 C3.18 0.19, 4.25 0.36, 6.8 0 M2.27 0 C3.18 -0.18, 4.39 0.13, 6.8 0 M6.8 0 C7.17 0.24, 9.38 0.93, 9.06 2.27 M6.8 0 C8.56 0.39, 7.18 -0.94, 9.06 2.27 M9.06 2.27 C8.33 24.11, 7.07 45.91, 9.06 72.76 M9.06 2.27 C8 21.55, 8.1 42.14, 9.06 72.76 M9.06 72.76 C10.94 73.2, 8.87 75.68, 6.8 75.03 M9.06 72.76 C10.47 74.88, 8.02 77.14, 6.8 75.03 M6.8 75.03 C5.95 75.2, 4.3 75.34, 2.27 75.03 M6.8 75.03 C5.26 74.94, 4.04 74.95, 2.27 75.03 M2.27 75.03 C-0.57 73.79, -1.47 72.52, 0 72.76 M2.27 75.03 C0.47 76.33, -1.25 76.08, 0 72.76 M0 72.76 C-0.06 59.78, 0.23 43.54, 0 2.27 M0 72.76 C-1.09 55, 0.53 36.31, 0 2.27 M0 2.27 C-0.28 2.27, 2.22 -0.99, 2.27 0 M0 2.27 C-1.5 0.3, 2.26 1.95, 2.27 0" stroke="#000000" stroke-width="1" fill="none"></path></g><g stroke-linecap="round" transform="translate(60.52505919107716 26.880537767426063) rotate(89.3969088056193 4.531944620380216 34.72707937123474)"><path d="M3.55 -0.3 L6.52 1.51 L10.53 1.27 L7.76 66.79 L8.1 71.15 L-0.92 67.94 L0.47 68.37 L-0.08 3.96 L4.06 -1.3" stroke="none" stroke-width="0" fill="#fab005"></path><path d="M2.27 0 M2.27 0 C3.66 0.12, 5.59 -0.39, 6.8 0 M2.27 0 C3.48 0.16, 5.15 0.07, 6.8 0 M6.8 0 C9.4 -0.66, 9.19 2.49, 9.06 2.27 M6.8 0 C7.61 -1.1, 10.53 0.16, 9.06 2.27 M9.06 2.27 C9.13 20.84, 8.09 38.26, 9.06 67.19 M9.06 2.27 C8.4 20.55, 9.5 38.14, 9.06 67.19 M9.06 67.19 C8.08 67.11, 10.28 69.53, 6.8 69.45 M9.06 67.19 C7.77 67.99, 6.22 69.5, 6.8 69.45 M6.8 69.45 C4.61 69.51, 2.83 69.79, 2.27 69.45 M6.8 69.45 C5.13 69.53, 3.6 69.44, 2.27 69.45 M2.27 69.45 C-0.7 70.99, -0.59 70.08, 0 67.19 M2.27 69.45 C2.84 68.21, 1.01 67.25, 0 67.19 M0 67.19 C-1.38 49.24, -0.88 34.8, 0 2.27 M0 67.19 C0.01 46.85, -0.98 29.25, 0 2.27 M0 2.27 C-1.17 1.56, -0.87 0.01, 2.27 0 M0 2.27 C-0.25 2.38, 2.46 -0.15, 2.27 0" stroke="#000000" stroke-width="1" fill="none"></path></g><g stroke-linecap="round" transform="translate(29.638426688314098 23.895262825330008) rotate(19.921332120485424 4.531944620380216 37.51443046870267)"><path d="M3.04 1.44 L7 -1.19 L9.31 1.94 L11.02 71.11 L7.38 74.64 L-0.24 73.6 L-1.68 72.57 L1.55 2.4 L3.45 -1.39" stroke="none" stroke-width="0" fill="#fab005"></path><path d="M2.27 0 M2.27 0 C3.18 -0.45, 4.82 0.24, 6.8 0 M2.27 0 C3.91 -0.08, 5.25 0.06, 6.8 0 M6.8 0 C9.96 0.63, 10.93 -0.73, 9.06 2.27 M6.8 0 C9.91 1.57, 8.43 1.12, 9.06 2.27 M9.06 2.27 C10.46 23.51, 7.14 39.74, 9.06 72.76 M9.06 2.27 C9.84 24.15, 9.8 45.97, 9.06 72.76 M9.06 72.76 C9.13 73.89, 8 75.01, 6.8 75.03 M9.06 72.76 C10.57 74.67, 7.97 77.11, 6.8 75.03 M6.8 75.03 C5.49 75.09, 4.07 74.95, 2.27 75.03 M6.8 75.03 C5.97 75.14, 4.67 75.05, 2.27 75.03 M2.27 75.03 C-0.73 73.82, 0.55 75.58, 0 72.76 M2.27 75.03 C2.58 74.66, 0.73 72.41, 0 72.76 M0 72.76 C-0.72 50.12, -0.84 27.11, 0 2.27 M0 72.76 C0.16 52.28, 0.86 31.21, 0 2.27 M0 2.27 C-1.52 -0.08, -1.07 0.28, 2.27 0 M0 2.27 C-0.99 1.96, 2.13 -1.47, 2.27 0" stroke="#000000" stroke-width="1" fill="none"></path></g><g stroke-linecap="round" transform="translate(50.28447614708762 10) rotate(0 15.281964745037044 8.142944718158446)"><path d="M3.44 2 L29.01 1.38 L28.76 0.44 L28.51 12.37 L26.76 17.11 L2.22 15.86 L0.09 12.68 L-1.65 3.31 L3 0.58 L5.77 -0.47" stroke="none" stroke-width="0" fill="#868e96"></path><path d="M4.07 0 M4.07 0 C13.15 -1.37, 22.24 -0.59, 26.49 0 M4.07 0 C11.74 0.61, 18.77 0.99, 26.49 0 M26.49 0 C27.76 1.83, 29.98 0.18, 30.56 4.07 M26.49 0 C28.67 0.15, 30.57 2.48, 30.56 4.07 M30.56 4.07 C29.95 5.94, 29.94 8.88, 30.56 12.21 M30.56 4.07 C30.54 6.34, 30.56 8.66, 30.56 12.21 M30.56 12.21 C30.8 13.46, 29.53 18.18, 26.49 16.29 M30.56 12.21 C30.58 16.95, 29.1 17.72, 26.49 16.29 M26.49 16.29 C19.17 18.1, 7.88 16.68, 4.07 16.29 M26.49 16.29 C19.49 15.25, 11.61 16.45, 4.07 16.29 M4.07 16.29 C0.16 15.86, -1.11 16.23, 0 12.21 M4.07 16.29 C1.66 14.17, 0.45 17.07, 0 12.21 M0 12.21 C-0.19 9.31, 0.36 6.16, 0 4.07 M0 12.21 C0.07 10.09, 0.04 7.72, 0 4.07 M0 4.07 C-1.05 1.63, -0.56 1.99, 4.07 0 M0 4.07 C0.75 0.02, -0.52 -0.31, 4.07 0" stroke="#000000" stroke-width="1" fill="none"></path></g><g stroke-linecap="round"><g transform="translate(65.11632744916506 19.923775033598304) rotate(0 4.23879314095916 9.48151097319817)"><path d="M0 0 C1.41 3.16, 7.06 15.8, 8.48 18.96 M0 0 C1.41 3.16, 7.06 15.8, 8.48 18.96" stroke="#000000" stroke-width="1" fill="none"></path></g></g><mask></mask><g stroke-linecap="round"><g transform="translate(73.59391373108338 39.33298573167451) rotate(0 3.5695100134392987 -1.7847550067196494)"><path d="M0 0 C1.19 -0.59, 5.95 -2.97, 7.14 -3.57 M0 0 C1.19 -0.59, 5.95 -2.97, 7.14 -3.57" stroke="#000000" stroke-width="1" fill="none"></path></g></g><mask></mask></svg>
