<?xml version="1.0" encoding="UTF-8" standalone="no"?>
<svg
   xmlns:dc="http://purl.org/dc/elements/1.1/"
   xmlns:cc="http://creativecommons.org/ns#"
   xmlns:rdf="http://www.w3.org/1999/02/22-rdf-syntax-ns#"
   xmlns:svg="http://www.w3.org/2000/svg"
   xmlns="http://www.w3.org/2000/svg"
   xmlns:xlink="http://www.w3.org/1999/xlink"
   xmlns:sodipodi="http://sodipodi.sourceforge.net/DTD/sodipodi-0.dtd"
   xmlns:inkscape="http://www.inkscape.org/namespaces/inkscape"
   version="1.1"
   id="Layer_1"
   x="0px"
   y="0px"
   viewBox="0 0 852 852"
   xml:space="preserve"
   inkscape:version="1.0.2 (e86c8708, 2021-01-15)"
   sodipodi:docname="logo.svg"
   inkscape:export-filename="/Users/tomasbeuzen/Documents/cookiecutter.png"
   inkscape:export-xdpi="67.605637"
   inkscape:export-ydpi="67.605637"
   width="852"
   height="852"><metadata
     id="metadata5188"><rdf:RDF><cc:Work
         rdf:about=""><dc:format>image/svg+xml</dc:format><dc:type
           rdf:resource="http://purl.org/dc/dcmitype/StillImage" /><dc:title>modelr</dc:title></cc:Work></rdf:RDF></metadata><defs
     id="defs5186">
<clipPath
   clipPathUnits="userSpaceOnUse"
   id="clipPath1020"><path
     style="display:block;fill:#ff0000;stroke:#000000;stroke-width:0.469754px;stroke-linecap:butt;stroke-linejoin:miter;stroke-opacity:1"
     d="m 338.25313,213.86388 15.09547,12.51899 7.54191,16.40919 -23.24505,-2.22504 -19.80175,3.6429 5.31396,-17.82698 z"
     id="path1022"
     sodipodi:nodetypes="ccccccc" /></clipPath><inkscape:path-effect
   effect="powerclip"
   id="path-effect1024"
   is_visible="true"
   lpeversion="1"
   inverse="true"
   flatten="false"
   hide_clip="false"
   message="Use fill-rule evenodd on &lt;b&gt;fill and stroke&lt;/b&gt; dialog if no flatten result after convert clip to paths." /><linearGradient
   inkscape:collect="always"
   xlink:href="#linearGradient9515"
   id="linearGradient5996"
   gradientUnits="userSpaceOnUse"
   x1="55.549179"
   y1="77.070274"
   x2="110.14919"
   y2="131.85291" /><linearGradient
   inkscape:collect="always"
   id="linearGradient9515"><stop
     style="stop-color:#387eb8;stop-opacity:1"
     offset="0"
     id="stop9517" /><stop
     style="stop-color:#366994;stop-opacity:1"
     offset="1"
     id="stop9519" /></linearGradient><linearGradient
   inkscape:collect="always"
   xlink:href="#linearGradient11301"
   id="linearGradient5998"
   gradientUnits="userSpaceOnUse"
   x1="89.136749"
   y1="111.92053"
   x2="147.77737"
   y2="168.1012" /><linearGradient
   inkscape:collect="always"
   id="linearGradient11301"><stop
     style="stop-color:#ffe052;stop-opacity:1"
     offset="0"
     id="stop11303" /><stop
     style="stop-color:#ffc331;stop-opacity:1"
     offset="1"
     id="stop11305" /></linearGradient></defs><sodipodi:namedview
     pagecolor="#ffffff"
     bordercolor="#666666"
     borderopacity="1"
     objecttolerance="10"
     gridtolerance="10"
     guidetolerance="10"
     inkscape:pageopacity="0"
     inkscape:pageshadow="2"
     inkscape:window-width="1440"
     inkscape:window-height="762"
     id="namedview5184"
     showgrid="false"
     inkscape:snap-global="false"
     inkscape:snap-bbox="true"
     inkscape:object-paths="true"
     inkscape:snap-intersection-paths="true"
     inkscape:snap-smooth-nodes="true"
     inkscape:zoom="0.40998915"
     inkscape:cx="433.83278"
     inkscape:cy="514.61598"
     inkscape:window-x="0"
     inkscape:window-y="25"
     inkscape:window-maximized="0"
     inkscape:current-layer="Layer_1"
     inkscape:document-rotation="0" /><style
     type="text/css"
     id="style4714">
	.st0{fill:#141227;}
	.st1{fill:#404040;}
	.st2{opacity:0.94;}
	.st3{fill:#FFFFFF;}
	.st4{opacity:0.8;fill:#F2F2F2;enable-background:new    ;}
	.st5{fill:#F7A238;}
	.st6{fill:#00A5DC;}
	.st7{fill:#164F86;}
	.st8{fill:#36A85D;}
	.st9{fill:#DB1F26;}
	.st10{fill:#FFF34D;}
	.st11{fill:#F26524;}
	.st12{fill:#B57AB4;}
	.st13{fill:#EF4782;}
	.st14{fill:#0088C5;}
	.st15{fill:#BCBCBC;}
	.st16{fill:none;stroke:#FFF34D;stroke-width:7;stroke-miterlimit:10;}
	.st17{fill:#F2F2F2;}
</style><title
     id="title4716">modelr</title><flowRoot
     style="font-style:normal;font-variant:normal;font-weight:normal;font-stretch:normal;font-size:40px;line-height:125%;font-family:'SF Pro Display';-inkscape-font-specification:'SF Pro Display';letter-spacing:0px;word-spacing:0px;fill:#000000;fill-opacity:1;stroke:none;stroke-width:1px;stroke-linecap:butt;stroke-linejoin:miter;stroke-opacity:1"
     id="flowRoot4261"
     xml:space="preserve"
     transform="translate(57,-0.25)"><flowRegion
       id="flowRegion4263"><rect
         y="595.89569"
         x="192.68802"
         height="169.2115"
         width="85.217506"
         id="rect4265" /></flowRegion><flowPara
       id="flowPara4267" /></flowRoot><polygon
     class="st0"
     points="19.1,224 19.1,628 369,830 718.9,628 718.9,224 369,22 "
     id="polygon4718-9"
     style="fill:#334864;fill-opacity:1"
     transform="translate(57.00001,-0.25)" /><path
     class="st1"
     d="M 793.4,638.15 V 213.85 L 764.1,196.95 486.3,36.55 426,1.75 l -60.3,34.8 -277.79999,160.4 -29.3,16.9 v 424.3 l 29.3,16.9 281.29999,162.4 56.9,32.8 56.9,-32.8 281.3,-162.4 z M 87.90001,622.25 V 231.85 L 426,36.55 v 0 l 338.1,195.2 v 390.4 L 426,817.45 Z"
     id="path4720-9"
     style="opacity:0.99;fill:#1f2b3c;fill-opacity:1"
     inkscape:connector-curvature="0" /><text
     xml:space="preserve"
     style="font-style:normal;font-variant:normal;font-weight:normal;font-stretch:normal;line-height:0%;font-family:'SF Pro Display';-inkscape-font-specification:'SF Pro Display';letter-spacing:0px;word-spacing:0px;fill:#000000;fill-opacity:1;stroke:none;stroke-width:1px;stroke-linecap:butt;stroke-linejoin:miter;stroke-opacity:1"
     x="425.12189"
     y="206.9727"
     id="text19861-3"><tspan
       sodipodi:role="line"
       id="tspan19863-8"
       x="425.12189"
       y="206.9727"
       style="font-style:normal;font-variant:normal;font-weight:600;font-stretch:normal;font-size:80px;line-height:1.25;font-family:Raleway;-inkscape-font-specification:'Raleway Semi-Bold';text-align:center;text-anchor:middle;fill:#ffffff">Py-Pkgs</tspan><tspan
       sodipodi:role="line"
       x="425.12189"
       y="306.97272"
       style="font-style:normal;font-variant:normal;font-weight:600;font-stretch:normal;font-size:80px;line-height:1.25;font-family:Raleway;-inkscape-font-specification:'Raleway Semi-Bold';text-align:center;text-anchor:middle;fill:#ffffff"
       id="tspan2918">Cookiecutter</tspan></text><path
     inkscape:randomized="0"
     inkscape:rounded="0"
     inkscape:flatsided="true"
     sodipodi:arg2="1.0471976"
     sodipodi:arg1="0.52359878"
     sodipodi:r2="164.89362"
     sodipodi:r1="190.40273"
     sodipodi:cy="542.32466"
     sodipodi:cx="425.99969"
     sodipodi:sides="6"
     id="path4340"
     style="fill:#ce936b;fill-opacity:1;fill-rule:nonzero;stroke:#000000;stroke-width:1.82842;stroke-linecap:round;stroke-linejoin:round;stroke-miterlimit:4;stroke-dasharray:none;stroke-opacity:1"
     sodipodi:type="star"
     d="m 590.89329,637.52601 -164.8936,95.20136 -164.89359,-95.20136 0,-190.40273 164.8936,-95.20136 164.89359,95.20136 z" /><path
     inkscape:connector-curvature="0"
     id="path4457"
     d="m 426.0003,542.32431 82.4468,-47.60029 -16.6627,-9.72629 z"
     style="fill:#57361f;fill-opacity:1;fill-rule:evenodd;stroke:#000000;stroke-width:1.82842;stroke-linecap:butt;stroke-linejoin:miter;stroke-miterlimit:4;stroke-dasharray:none;stroke-opacity:1" /><path
     sodipodi:nodetypes="cccccccccccc"
     inkscape:connector-curvature="0"
     id="rect4483"
     d="m 519.1978,488.51626 -21.5013,12.4155 v 29.03133 l 2.6877,-4.05718 2.6877,0.9533 2.6876,-4.05718 2.6877,0.95331 2.6876,-4.05717 2.6877,0.95329 2.6876,-4.05717 2.6877,0.9533 z"
     style="opacity:0.8;fill:#f9f9f9;fill-opacity:1;fill-rule:nonzero;stroke:none;stroke-width:3.65685;stroke-linecap:round;stroke-linejoin:round;stroke-miterlimit:4;stroke-dasharray:none;stroke-opacity:1" /><path
     inkscape:connector-curvature="0"
     id="path4347"
     d="m 425.9996,732.72738 7e-4,-190.40307 164.8929,-95.20103"
     style="fill:none;fill-rule:evenodd;stroke:#000000;stroke-width:1.82842;stroke-linecap:butt;stroke-linejoin:miter;stroke-miterlimit:4;stroke-dasharray:none;stroke-opacity:1" /><g
     transform="matrix(0.87757529,0.50666833,0,0.87757529,-120.30785,60.338531)"
     id="g4435"
     inkscape:label="Calque 1"><g
       transform="translate(428.42338,184.2561)"
       id="g4437"><path
         id="path4439"
         d="M 99.75,67.46875 C 71.718268,67.468752 73.46875,79.625 73.46875,79.625 L 73.5,92.21875 h 26.75 V 96 H 62.875 c 0,0 -17.9375,-2.034276 -17.9375,26.25 -2e-6,28.28427 15.65625,27.28125 15.65625,27.28125 h 9.34375 v -13.125 c 0,0 -0.503652,-15.65625 15.40625,-15.65625 15.9099,0 26.53125,0 26.53125,0 0,0 14.90625,0.24096 14.90625,-14.40625 0,-14.647206 0,-24.21875 0,-24.21875 0,-2e-6 2.26318,-14.65625 -27.03125,-14.65625 z M 85,75.9375 c 2.661429,-2e-6 4.8125,2.151071 4.8125,4.8125 2e-6,2.661429 -2.151071,4.8125 -4.8125,4.8125 -2.661429,2e-6 -4.8125,-2.151071 -4.8125,-4.8125 -2e-6,-2.661429 2.151071,-4.8125 4.8125,-4.8125 z"
         style="color:#000000;display:inline;overflow:visible;visibility:visible;opacity:1;fill:url(#linearGradient5996);fill-opacity:1;fill-rule:nonzero;stroke:none;stroke-width:1;stroke-linecap:butt;stroke-linejoin:miter;stroke-miterlimit:4;stroke-dasharray:none;stroke-dashoffset:0;stroke-opacity:1;marker:none;marker-start:none;marker-mid:none;marker-end:none"
         inkscape:connector-curvature="0" /><path
         style="color:#000000;display:inline;overflow:visible;visibility:visible;opacity:1;fill:url(#linearGradient5998);fill-opacity:1;fill-rule:nonzero;stroke:none;stroke-width:1;stroke-linecap:butt;stroke-linejoin:miter;stroke-miterlimit:4;stroke-dasharray:none;stroke-dashoffset:0;stroke-opacity:1;marker:none;marker-start:none;marker-mid:none;marker-end:none"
         d="m 100.5461,177.31485 c 28.03174,0 26.28125,-12.15625 26.28125,-12.15625 l -0.0312,-12.59375 h -26.75 v -3.78125 h 37.375 c 0,0 17.9375,2.03427 17.9375,-26.25001 10e-6,-28.284267 -15.65625,-27.281247 -15.65625,-27.281247 h -9.34375 v 13.124997 c 0,0 0.50366,15.65625 -15.40625,15.65625 -15.909902,0 -26.531252,0 -26.531252,0 0,0 -14.90625,-0.24096 -14.90625,14.40626 0,14.6472 0,24.21875 0,24.21875 0,0 -2.26318,14.65625 27.031252,14.65625 z m 14.75,-8.46875 c -2.66143,0 -4.8125,-2.15107 -4.8125,-4.8125 0,-2.66143 2.15107,-4.8125 4.8125,-4.8125 2.66143,0 4.8125,2.15107 4.8125,4.8125 1e-5,2.66143 -2.15107,4.8125 -4.8125,4.8125 z"
         id="path4441"
         inkscape:connector-curvature="0" /></g></g><path
     id="path4496"
     d="m 354.1132,393.42523 -10.5598,6.09626 164.8938,95.20063 10.7091,-6.18318 z"
     style="opacity:0.8;fill:#f9f9f9;fill-opacity:1;fill-rule:nonzero;stroke:none;stroke-width:4.13599;stroke-linecap:round;stroke-linejoin:round;stroke-miterlimit:4;stroke-dasharray:none;stroke-opacity:1"
     inkscape:connector-curvature="0" /><path
     id="path4607"
     d="m 497.6928,393.31563 -164.89,95.20063 21.5032,12.4155 164.8918,-95.20063 z"
     style="opacity:0.8;fill:#f9f9f9;fill-opacity:1;fill-rule:nonzero;stroke:none;stroke-width:3.65685;stroke-linecap:round;stroke-linejoin:round;stroke-miterlimit:4;stroke-dasharray:none;stroke-opacity:1"
     inkscape:connector-curvature="0" /><path
     inkscape:connector-curvature="0"
     id="path4648"
     d="m 426.0004,351.9193 -82.4469,47.60219 164.8936,95.20062 82.4469,-47.60029 z"
     style="fill:none;fill-opacity:1;fill-rule:nonzero;stroke:#000000;stroke-width:1.82842;stroke-linecap:round;stroke-linejoin:round;stroke-miterlimit:4;stroke-dasharray:none;stroke-opacity:1" /><path
     sodipodi:nodetypes="ccccc"
     inkscape:connector-curvature="0"
     id="path4447"
     d="m 338.4513,382.9783 -77.3448,64.14546 164.8938,95.20055 77.3447,-64.14353 z"
     style="fill:#ce936b;fill-opacity:1;fill-rule:nonzero;stroke:#000000;stroke-width:1.82842;stroke-linecap:round;stroke-linejoin:round;stroke-miterlimit:4;stroke-dasharray:none;stroke-opacity:1" /><path
     sodipodi:nodetypes="ccccc"
     inkscape:connector-curvature="0"
     id="path4527"
     d="m 337.622,383.46202 -9.9404,7.99152 164.6556,95.06459 9.9385,-7.99152 z"
     style="opacity:0.8;fill:#f9f9f9;fill-opacity:1;fill-rule:nonzero;stroke:none;stroke-width:3.65684;stroke-linecap:round;stroke-linejoin:round;stroke-miterlimit:4;stroke-dasharray:none;stroke-opacity:1" /><path
     style="opacity:0.8;fill:#f9f9f9;fill-opacity:1;fill-rule:nonzero;stroke:none;stroke-width:3.65684;stroke-linecap:round;stroke-linejoin:round;stroke-miterlimit:4;stroke-dasharray:none;stroke-opacity:1"
     d="m 332.8028,488.51627 21.5012,12.41549 v 29.03132 l -2.6876,-4.05716 -2.6878,0.95331 -2.6876,-4.0572 -2.6876,0.9533 -2.6877,-4.05716 -2.6877,0.95331 -2.6876,-4.0572 -2.6876,0.9533 z"
     id="path4586"
     inkscape:connector-curvature="0"
     sodipodi:nodetypes="cccccccccccc" /><path
     sodipodi:nodetypes="ccccc"
     inkscape:connector-curvature="0"
     id="path4590"
     d="m 354.304,500.93176 76.9989,-63.7974 -21.5032,-12.4155 -76.9969,63.79741 c 21.5032,12.41549 0,0 21.5012,12.41549 z"
     style="opacity:0.8;fill:#f9f9f9;fill-opacity:1;fill-rule:nonzero;stroke:none;stroke-width:3.65684;stroke-linecap:round;stroke-linejoin:round;stroke-miterlimit:4;stroke-dasharray:none;stroke-opacity:1" /><path
     style="fill:none;fill-opacity:1;fill-rule:nonzero;stroke:#000000;stroke-width:1.82842;stroke-linecap:round;stroke-linejoin:round;stroke-miterlimit:4;stroke-dasharray:none;stroke-opacity:1"
     d="m 338.4513,382.9783 -77.3448,64.14546 164.8938,95.20055 77.3447,-64.14353 z"
     id="path4659"
     inkscape:connector-curvature="0"
     sodipodi:nodetypes="ccccc" /><g
     id="g3875"
     transform="matrix(0.93048941,0,0,0.93048941,38.414048,37.923035)"><path
       inkscape:connector-curvature="0"
       id="path4277"
       d="m 551.9183,581.25785 c 0.3959,7.73049 -0.2007,14.44153 -1.9511,21.94701 -4.4523,19.09199 -15.5515,36.18679 -30.116,46.38449 -16.9847,11.89224 -35.2186,10.57313 -45.8016,-3.31348 -3.9252,-5.15049 -6.4709,-11.49372 -7.6634,-19.09499 -1.0525,-6.70903 -1.1244,-10.64027 -0.2292,-12.52977 1.3092,-2.76344 2.3696,-2.84534 5.4045,-0.41737 1.4491,1.15924 3.7389,0.6764 5.6536,-1.19208 1.3998,-1.36609 2.0646,-2.73734 3.2971,-6.80077 l 0.6226,-2.05244 3.4054,-1.96501 c 3.9621,-2.28616 6.1535,-4.61641 8.0807,-8.59271 1.8666,-3.85114 2.3382,-7.24783 1.6635,-11.98073 l -0.5717,-4.01027 1.1853,-1.76361 c 2.3468,-3.4916 2.9873,-4.87536 3.1762,-6.86283 0.2585,-2.71841 -0.7676,-4.90294 -2.5334,-5.39351 -3.6985,-1.02747 -4.2817,-1.95282 -2.9724,-4.71627 0.8951,-1.8895 3.9354,-4.22363 9.6899,-7.43942 17.7901,-9.94157 35.4107,-5.62905 44.3969,10.86584 2.4342,4.4681 4.9941,13.67458 5.2631,18.92791 z"
       style="fill:#ba6d3b;fill-opacity:1;stroke:#3c2210;stroke-width:1.20152;stroke-miterlimit:4;stroke-dasharray:none;stroke-opacity:1"
       sodipodi:nodetypes="csssssssscssscsssssscc" /><ellipse
       cy="816.3208"
       cx="531.50659"
       id="path4282"
       style="fill:#3c2210;fill-opacity:1;fill-rule:nonzero;stroke:none;stroke-width:1.23899;stroke-linecap:square;stroke-linejoin:round;stroke-miterlimit:4;stroke-dasharray:none;stroke-opacity:1"
       transform="matrix(0.94042947,-0.33998884,0,1,0,0)"
       rx="7.1482706"
       ry="8.3153353" /><ellipse
       style="fill:#3c2210;fill-opacity:1;fill-rule:nonzero;stroke:none;stroke-width:0.908591;stroke-linecap:square;stroke-linejoin:round;stroke-miterlimit:4;stroke-dasharray:none;stroke-opacity:1"
       id="circle4284"
       cx="539.60803"
       cy="782.50507"
       transform="matrix(0.94042947,-0.33998884,0,1,0,0)"
       rx="5.2420654"
       ry="6.0979128" /><ellipse
       cy="799.13574"
       cx="509.10873"
       id="circle4286"
       style="fill:#3c2210;fill-opacity:1;fill-rule:nonzero;stroke:none;stroke-width:0.578195;stroke-linecap:square;stroke-linejoin:round;stroke-miterlimit:4;stroke-dasharray:none;stroke-opacity:1"
       transform="matrix(0.94042947,-0.33998884,0,1,0,0)"
       rx="3.3358598"
       ry="3.8804898" /><ellipse
       style="fill:#3c2210;fill-opacity:1;fill-rule:nonzero;stroke:none;stroke-width:0.578195;stroke-linecap:square;stroke-linejoin:round;stroke-miterlimit:4;stroke-dasharray:none;stroke-opacity:1"
       id="circle4288"
       cx="564.38867"
       cy="815.76642"
       transform="matrix(0.94042947,-0.33998884,0,1,0,0)"
       rx="3.3358598"
       ry="3.8804898" /><ellipse
       style="fill:#3c2210;fill-opacity:1;fill-rule:nonzero;stroke:none;stroke-width:1.07379;stroke-linecap:square;stroke-linejoin:round;stroke-miterlimit:4;stroke-dasharray:none;stroke-opacity:1"
       id="circle4290"
       cx="569.15417"
       cy="789.15735"
       transform="matrix(0.94042947,-0.33998884,0,1,0,0)"
       rx="6.195168"
       ry="7.206624" /><ellipse
       style="fill:#3c2210;fill-opacity:1;fill-rule:nonzero;stroke:none;stroke-width:1.23899;stroke-linecap:square;stroke-linejoin:round;stroke-miterlimit:4;stroke-dasharray:none;stroke-opacity:1"
       id="circle4292"
       cx="549.13904"
       cy="750.35248"
       transform="matrix(0.94042947,-0.33998884,0,1,0,0)"
       rx="7.1482706"
       ry="8.3153353" /><ellipse
       style="fill:#3c2210;fill-opacity:1;fill-rule:nonzero;stroke:none;stroke-width:0.578195;stroke-linecap:square;stroke-linejoin:round;stroke-miterlimit:4;stroke-dasharray:none;stroke-opacity:1"
       id="circle4294"
       cx="568.20105"
       cy="768.09186"
       transform="matrix(0.94042947,-0.33998884,0,1,0,0)"
       rx="3.3358598"
       ry="3.8804898" /></g></svg>
