<?xml version="1.0" encoding="UTF-8" standalone="no"?>
<svg
   xmlns:dc="http://purl.org/dc/elements/1.1/"
   xmlns:cc="http://creativecommons.org/ns#"
   xmlns:rdf="http://www.w3.org/1999/02/22-rdf-syntax-ns#"
   xmlns:svg="http://www.w3.org/2000/svg"
   xmlns="http://www.w3.org/2000/svg"
   xmlns:xlink="http://www.w3.org/1999/xlink"
   xmlns:sodipodi="http://sodipodi.sourceforge.net/DTD/sodipodi-0.dtd"
   xmlns:inkscape="http://www.inkscape.org/namespaces/inkscape"
   version="1.1"
   id="Layer_1"
   x="0px"
   y="0px"
   viewBox="0 0 1600.0001 461"
   xml:space="preserve"
   inkscape:version="1.0.2 (e86c8708, 2021-01-15)"
   sodipodi:docname="logo.svg"
   inkscape:export-filename="/Users/tomasbeuzen/GitHub/py-pkgs/py-pkgs-cookiecutter/docs/source/_static/logo.png"
   inkscape:export-xdpi="100"
   inkscape:export-ydpi="100"
   width="1600"
   height="461"><metadata
     id="metadata5188"><rdf:RDF><cc:Work
         rdf:about=""><dc:format>image/svg+xml</dc:format><dc:type
           rdf:resource="http://purl.org/dc/dcmitype/StillImage" /><dc:title>modelr</dc:title></cc:Work></rdf:RDF></metadata><defs
     id="defs5186">
<linearGradient
   inkscape:collect="always"
   xlink:href="#linearGradient9515"
   id="linearGradient5996"
   gradientUnits="userSpaceOnUse"
   x1="55.549179"
   y1="77.070274"
   x2="110.14919"
   y2="131.85291" /><linearGradient
   inkscape:collect="always"
   id="linearGradient9515"><stop
     style="stop-color:#387eb8;stop-opacity:1"
     offset="0"
     id="stop9517" /><stop
     style="stop-color:#366994;stop-opacity:1"
     offset="1"
     id="stop9519" /></linearGradient><linearGradient
   inkscape:collect="always"
   xlink:href="#linearGradient11301"
   id="linearGradient5998"
   gradientUnits="userSpaceOnUse"
   x1="89.136749"
   y1="111.92053"
   x2="147.77737"
   y2="168.1012" /><linearGradient
   inkscape:collect="always"
   id="linearGradient11301"><stop
     style="stop-color:#ffe052;stop-opacity:1"
     offset="0"
     id="stop11303" /><stop
     style="stop-color:#ffc331;stop-opacity:1"
     offset="1"
     id="stop11305" /></linearGradient></defs><sodipodi:namedview
     pagecolor="#ffffff"
     bordercolor="#666666"
     borderopacity="1"
     objecttolerance="10"
     gridtolerance="10"
     guidetolerance="10"
     inkscape:pageopacity="0"
     inkscape:pageshadow="2"
     inkscape:window-width="1328"
     inkscape:window-height="690"
     id="namedview5184"
     showgrid="false"
     inkscape:snap-global="true"
     inkscape:snap-bbox="true"
     inkscape:object-paths="true"
     inkscape:snap-intersection-paths="true"
     inkscape:snap-smooth-nodes="true"
     inkscape:zoom="0.28990611"
     inkscape:cx="685.20739"
     inkscape:cy="490.13998"
     inkscape:window-x="21"
     inkscape:window-y="25"
     inkscape:window-maximized="0"
     inkscape:current-layer="Layer_1"
     inkscape:document-rotation="0"
     fit-margin-top="0"
     fit-margin-left="0"
     fit-margin-right="0"
     fit-margin-bottom="0" /><style
     type="text/css"
     id="style4714">
	.st0{fill:#141227;}
	.st1{fill:#404040;}
	.st2{opacity:0.94;}
	.st3{fill:#FFFFFF;}
	.st4{opacity:0.8;fill:#F2F2F2;enable-background:new    ;}
	.st5{fill:#F7A238;}
	.st6{fill:#00A5DC;}
	.st7{fill:#164F86;}
	.st8{fill:#36A85D;}
	.st9{fill:#DB1F26;}
	.st10{fill:#FFF34D;}
	.st11{fill:#F26524;}
	.st12{fill:#B57AB4;}
	.st13{fill:#EF4782;}
	.st14{fill:#0088C5;}
	.st15{fill:#BCBCBC;}
	.st16{fill:none;stroke:#FFF34D;stroke-width:7;stroke-miterlimit:10;}
	.st17{fill:#F2F2F2;}
</style><title
     id="title4716">modelr</title><flowRoot
     style="font-style:normal;font-variant:normal;font-weight:normal;font-stretch:normal;font-size:40px;line-height:125%;font-family:'SF Pro Display';-inkscape-font-specification:'SF Pro Display';letter-spacing:0px;word-spacing:0px;fill:#000000;fill-opacity:1;stroke:none;stroke-width:1px;stroke-linecap:butt;stroke-linejoin:miter;stroke-opacity:1"
     id="flowRoot4261"
     xml:space="preserve"
     transform="translate(-527.80828,-267.75)"><flowRegion
       id="flowRegion4263"><rect
         y="595.89569"
         x="192.68802"
         height="169.2115"
         width="85.217506"
         id="rect4265" /></flowRegion><flowPara
       id="flowPara4267" /></flowRoot><g
     id="g4966"
     transform="matrix(1.202926,0,0,1.202926,358.04499,-420.12804)"><path
       inkscape:randomized="0"
       inkscape:rounded="0"
       inkscape:flatsided="true"
       sodipodi:arg2="1.0471976"
       sodipodi:arg1="0.52359878"
       sodipodi:r2="164.89362"
       sodipodi:r1="190.40273"
       sodipodi:cy="540.57465"
       sodipodi:cx="367.39969"
       sodipodi:sides="6"
       id="path4340"
       style="fill:#ce936b;fill-opacity:1;fill-rule:nonzero;stroke:#000000;stroke-width:1.82842;stroke-linecap:round;stroke-linejoin:round;stroke-miterlimit:4;stroke-dasharray:none;stroke-opacity:1"
       sodipodi:type="star"
       d="m 532.29329,635.77601 -164.8936,95.20136 -164.8936,-95.20136 0,-190.40273 164.8936,-95.20136 164.8936,95.20136 z" /><path
       inkscape:connector-curvature="0"
       id="path4457"
       d="m 367.40029,540.57431 82.4468,-47.60029 -16.6627,-9.72629 z"
       style="fill:#57361f;fill-opacity:1;fill-rule:evenodd;stroke:#000000;stroke-width:1.82842;stroke-linecap:butt;stroke-linejoin:miter;stroke-miterlimit:4;stroke-dasharray:none;stroke-opacity:1" /><path
       sodipodi:nodetypes="cccccccccccc"
       inkscape:connector-curvature="0"
       id="rect4483"
       d="m 460.5978,486.76626 -21.50131,12.4155 v 29.03133 l 2.6877,-4.05718 2.68771,0.9533 2.68759,-4.05718 2.6877,0.95331 2.6876,-4.05717 2.6877,0.95329 2.6876,-4.05717 2.6877,0.9533 z"
       style="opacity:0.8;fill:#f9f9f9;fill-opacity:1;fill-rule:nonzero;stroke:none;stroke-width:3.65685;stroke-linecap:round;stroke-linejoin:round;stroke-miterlimit:4;stroke-dasharray:none;stroke-opacity:1" /><path
       inkscape:connector-curvature="0"
       id="path4347"
       d="m 367.39959,730.97738 7e-4,-190.40307 164.8929,-95.20103"
       style="fill:none;fill-rule:evenodd;stroke:#000000;stroke-width:1.82842;stroke-linecap:butt;stroke-linejoin:miter;stroke-miterlimit:4;stroke-dasharray:none;stroke-opacity:1" /><g
       transform="matrix(0.87757529,0.50666833,0,0.87757529,197.06592,437.35569)"
       id="g4437"><path
         id="path4439"
         d="M 99.75,67.46875 C 71.718268,67.468752 73.46875,79.625 73.46875,79.625 L 73.5,92.21875 h 26.75 V 96 H 62.875 c 0,0 -17.9375,-2.034276 -17.9375,26.25 -2e-6,28.28427 15.65625,27.28125 15.65625,27.28125 h 9.34375 v -13.125 c 0,0 -0.503652,-15.65625 15.40625,-15.65625 15.9099,0 26.53125,0 26.53125,0 0,0 14.90625,0.24096 14.90625,-14.40625 0,-14.647206 0,-24.21875 0,-24.21875 0,-2e-6 2.26318,-14.65625 -27.03125,-14.65625 z M 85,75.9375 c 2.661429,-2e-6 4.8125,2.151071 4.8125,4.8125 2e-6,2.661429 -2.151071,4.8125 -4.8125,4.8125 -2.661429,2e-6 -4.8125,-2.151071 -4.8125,-4.8125 -2e-6,-2.661429 2.151071,-4.8125 4.8125,-4.8125 z"
         style="color:#000000;display:inline;overflow:visible;visibility:visible;opacity:1;fill:url(#linearGradient5996);fill-opacity:1;fill-rule:nonzero;stroke:none;stroke-width:1;stroke-linecap:butt;stroke-linejoin:miter;stroke-miterlimit:4;stroke-dasharray:none;stroke-dashoffset:0;stroke-opacity:1;marker:none;marker-start:none;marker-mid:none;marker-end:none"
         inkscape:connector-curvature="0" /><path
         style="color:#000000;display:inline;overflow:visible;visibility:visible;opacity:1;fill:url(#linearGradient5998);fill-opacity:1;fill-rule:nonzero;stroke:none;stroke-width:1;stroke-linecap:butt;stroke-linejoin:miter;stroke-miterlimit:4;stroke-dasharray:none;stroke-dashoffset:0;stroke-opacity:1;marker:none;marker-start:none;marker-mid:none;marker-end:none"
         d="m 100.5461,177.31485 c 28.03174,0 26.28125,-12.15625 26.28125,-12.15625 l -0.0312,-12.59375 h -26.75 v -3.78125 h 37.375 c 0,0 17.9375,2.03427 17.9375,-26.25001 10e-6,-28.284267 -15.65625,-27.281247 -15.65625,-27.281247 h -9.34375 v 13.124997 c 0,0 0.50366,15.65625 -15.40625,15.65625 -15.909902,0 -26.531252,0 -26.531252,0 0,0 -14.90625,-0.24096 -14.90625,14.40626 0,14.6472 0,24.21875 0,24.21875 0,0 -2.26318,14.65625 27.031252,14.65625 z m 14.75,-8.46875 c -2.66143,0 -4.8125,-2.15107 -4.8125,-4.8125 0,-2.66143 2.15107,-4.8125 4.8125,-4.8125 2.66143,0 4.8125,2.15107 4.8125,4.8125 1e-5,2.66143 -2.15107,4.8125 -4.8125,4.8125 z"
         id="path4441"
         inkscape:connector-curvature="0" /></g><path
       id="path4496"
       d="m 295.51319,391.67523 -10.5598,6.09626 164.8938,95.20063 10.7091,-6.18318 z"
       style="opacity:0.8;fill:#f9f9f9;fill-opacity:1;fill-rule:nonzero;stroke:none;stroke-width:4.13599;stroke-linecap:round;stroke-linejoin:round;stroke-miterlimit:4;stroke-dasharray:none;stroke-opacity:1"
       inkscape:connector-curvature="0" /><path
       id="path4607"
       d="m 439.09279,391.56563 -164.89,95.20063 21.5032,12.4155 164.8918,-95.20063 z"
       style="opacity:0.8;fill:#f9f9f9;fill-opacity:1;fill-rule:nonzero;stroke:none;stroke-width:3.65685;stroke-linecap:round;stroke-linejoin:round;stroke-miterlimit:4;stroke-dasharray:none;stroke-opacity:1"
       inkscape:connector-curvature="0" /><path
       inkscape:connector-curvature="0"
       id="path4648"
       d="m 367.40039,350.1693 -82.4469,47.60219 164.8936,95.20062 82.4469,-47.60029 z"
       style="fill:none;fill-opacity:1;fill-rule:nonzero;stroke:#000000;stroke-width:1.82842;stroke-linecap:round;stroke-linejoin:round;stroke-miterlimit:4;stroke-dasharray:none;stroke-opacity:1" /><path
       sodipodi:nodetypes="ccccc"
       inkscape:connector-curvature="0"
       id="path4447"
       d="m 279.85129,381.2283 -77.3448,64.14546 164.8938,95.20055 77.3447,-64.14353 z"
       style="fill:#ce936b;fill-opacity:1;fill-rule:nonzero;stroke:#000000;stroke-width:1.82842;stroke-linecap:round;stroke-linejoin:round;stroke-miterlimit:4;stroke-dasharray:none;stroke-opacity:1" /><path
       sodipodi:nodetypes="ccccc"
       inkscape:connector-curvature="0"
       id="path4527"
       d="m 279.02199,381.71202 -9.9404,7.99152 164.6556,95.06459 9.9385,-7.99152 z"
       style="opacity:0.8;fill:#f9f9f9;fill-opacity:1;fill-rule:nonzero;stroke:none;stroke-width:3.65684;stroke-linecap:round;stroke-linejoin:round;stroke-miterlimit:4;stroke-dasharray:none;stroke-opacity:1" /><path
       style="opacity:0.8;fill:#f9f9f9;fill-opacity:1;fill-rule:nonzero;stroke:none;stroke-width:3.65684;stroke-linecap:round;stroke-linejoin:round;stroke-miterlimit:4;stroke-dasharray:none;stroke-opacity:1"
       d="m 274.20279,486.76627 21.5012,12.41549 v 29.03132 l -2.6876,-4.05716 -2.6878,0.95331 -2.68759,-4.0572 -2.6876,0.9533 -2.6877,-4.05716 -2.6877,0.95331 -2.6876,-4.0572 -2.6876,0.9533 z"
       id="path4586"
       inkscape:connector-curvature="0"
       sodipodi:nodetypes="cccccccccccc" /><path
       sodipodi:nodetypes="ccccc"
       inkscape:connector-curvature="0"
       id="path4590"
       d="m 295.70399,499.18176 76.9989,-63.7974 -21.5032,-12.4155 -76.9969,63.79741 c 21.5032,12.41549 0,0 21.5012,12.41549 z"
       style="opacity:0.8;fill:#f9f9f9;fill-opacity:1;fill-rule:nonzero;stroke:none;stroke-width:3.65684;stroke-linecap:round;stroke-linejoin:round;stroke-miterlimit:4;stroke-dasharray:none;stroke-opacity:1" /><path
       style="fill:none;fill-opacity:1;fill-rule:nonzero;stroke:#000000;stroke-width:1.82842;stroke-linecap:round;stroke-linejoin:round;stroke-miterlimit:4;stroke-dasharray:none;stroke-opacity:1"
       d="m 279.85129,381.2283 -77.3448,64.14546 164.8938,95.20055 77.3447,-64.14353 z"
       id="path4659"
       inkscape:connector-curvature="0"
       sodipodi:nodetypes="ccccc" /><path
       inkscape:connector-curvature="0"
       id="path4277-1"
       d="m 493.36818,577.02731 c 0.36838,7.19314 -0.18675,13.43769 -1.81548,20.42146 -4.14282,17.76489 -14.47051,33.67142 -28.02262,43.16028 -15.80408,11.0656 -32.77053,9.83818 -42.6179,-3.08316 -3.65236,-4.79248 -6.02111,-10.69479 -7.13072,-17.76769 -0.97934,-6.24268 -1.04624,-9.90066 -0.21327,-11.65882 1.2182,-2.57135 2.20489,-2.64756 5.02883,-0.38835 1.34838,1.07866 3.47901,0.62938 5.26062,-1.10922 1.3025,-1.27113 1.92109,-2.54707 3.06792,-6.32805 l 0.57932,-1.90977 3.16869,-1.82842 c 3.68669,-2.12725 5.72576,-4.29552 7.519,-7.99543 1.73686,-3.58344 2.17567,-6.74403 1.54787,-11.14794 l -0.53196,-3.73151 1.10291,-1.64102 c 2.18367,-3.2489 2.77965,-4.53647 2.95542,-6.38579 0.24053,-2.52946 -0.71424,-4.56214 -2.3573,-5.01861 -3.44142,-0.95605 -3.98408,-1.81708 -2.76579,-4.38844 0.83288,-1.75816 3.66185,-3.93004 9.01635,-6.9223 16.5535,-9.25052 32.94928,-5.23777 41.31085,10.11055 2.26499,4.15752 4.64695,12.72405 4.89726,17.61222 z"
       style="fill:#ba6d3b;fill-opacity:1;stroke:#3c2210;stroke-width:1.118;stroke-miterlimit:4;stroke-dasharray:none;stroke-opacity:1"
       sodipodi:nodetypes="csssssssscssscsssssscc" /><ellipse
       cy="788.45319"
       cx="473.09665"
       id="path4282-2"
       style="fill:#3c2210;fill-opacity:1;fill-rule:nonzero;stroke:none;stroke-width:1.15287;stroke-linecap:square;stroke-linejoin:round;stroke-miterlimit:4;stroke-dasharray:none;stroke-opacity:1"
       transform="matrix(0.94042947,-0.33998885,0,1,0,0)"
       rx="6.6513901"
       ry="7.7373314" /><ellipse
       style="fill:#3c2210;fill-opacity:1;fill-rule:nonzero;stroke:none;stroke-width:0.845434;stroke-linecap:square;stroke-linejoin:round;stroke-miterlimit:4;stroke-dasharray:none;stroke-opacity:1"
       id="circle4284-3"
       cx="480.63495"
       cy="756.98798"
       transform="matrix(0.94042947,-0.33998885,0,1,0,0)"
       rx="4.8776865"
       ry="5.6740432" /><ellipse
       cy="772.46265"
       cx="452.25568"
       id="circle4286-7"
       style="fill:#3c2210;fill-opacity:1;fill-rule:nonzero;stroke:none;stroke-width:0.538004;stroke-linecap:square;stroke-linejoin:round;stroke-miterlimit:4;stroke-dasharray:none;stroke-opacity:1"
       transform="matrix(0.94042947,-0.33998885,0,1,0,0)"
       rx="3.1039822"
       ry="3.6107547" /><ellipse
       style="fill:#3c2210;fill-opacity:1;fill-rule:nonzero;stroke:none;stroke-width:0.538004;stroke-linecap:square;stroke-linejoin:round;stroke-miterlimit:4;stroke-dasharray:none;stroke-opacity:1"
       id="circle4288-2"
       cx="503.69305"
       cy="787.93732"
       transform="matrix(0.94042947,-0.33998885,0,1,0,0)"
       rx="3.1039822"
       ry="3.6107547" /><ellipse
       style="fill:#3c2210;fill-opacity:1;fill-rule:nonzero;stroke:none;stroke-width:0.99915;stroke-linecap:square;stroke-linejoin:round;stroke-miterlimit:4;stroke-dasharray:none;stroke-opacity:1"
       id="circle4290-4"
       cx="508.12732"
       cy="763.17786"
       transform="matrix(0.94042947,-0.33998885,0,1,0,0)"
       rx="5.7645383"
       ry="6.7056875" /><ellipse
       style="fill:#3c2210;fill-opacity:1;fill-rule:nonzero;stroke:none;stroke-width:1.15287;stroke-linecap:square;stroke-linejoin:round;stroke-miterlimit:4;stroke-dasharray:none;stroke-opacity:1"
       id="circle4292-1"
       cx="489.50345"
       cy="727.07031"
       transform="matrix(0.94042947,-0.33998885,0,1,0,0)"
       rx="6.6513901"
       ry="7.7373314" /><ellipse
       style="fill:#3c2210;fill-opacity:1;fill-rule:nonzero;stroke:none;stroke-width:0.538004;stroke-linecap:square;stroke-linejoin:round;stroke-miterlimit:4;stroke-dasharray:none;stroke-opacity:1"
       id="circle4294-8"
       cx="507.24045"
       cy="743.57666"
       transform="matrix(0.94042947,-0.33998885,0,1,0,0)"
       rx="3.1039822"
       ry="3.6107547" /></g></svg>
